<?xml version="1.0" encoding="UTF-8" standalone="no"?>
<!-- Created with Inkscape (http://www.inkscape.org/) -->

<svg
   width="210mm"
   height="297mm"
   viewBox="0 0 210 297"
   version="1.1"
   id="svg2021"
   inkscape:version="1.2.2 (732a01da63, 2022-12-09)"
   sodipodi:docname="drawing.svg"
   xmlns:inkscape="http://www.inkscape.org/namespaces/inkscape"
   xmlns:sodipodi="http://sodipodi.sourceforge.net/DTD/sodipodi-0.dtd"
   xmlns="http://www.w3.org/2000/svg"
   xmlns:svg="http://www.w3.org/2000/svg">
  <sodipodi:namedview
     id="namedview2023"
     pagecolor="#ffffff"
     bordercolor="#000000"
     borderopacity="0.25"
     inkscape:showpageshadow="2"
     inkscape:pageopacity="0.0"
     inkscape:pagecheckerboard="0"
     inkscape:deskcolor="#d1d1d1"
     inkscape:document-units="mm"
     showgrid="false"
     inkscape:zoom="0.70710678"
     inkscape:cx="584.0702"
     inkscape:cy="461.03362"
     inkscape:window-width="1366"
     inkscape:window-height="715"
     inkscape:window-x="-8"
     inkscape:window-y="-8"
     inkscape:window-maximized="1"
     inkscape:current-layer="layer1" />
  <defs
     id="defs2018" />
  <g
     inkscape:label="Layer 1"
     inkscape:groupmode="layer"
     id="layer1">
    <circle
       style="fill:#ff0000;stroke:#000000;stroke-width:0.529167;stroke-dasharray:none"
       id="circle1983"
       cx="-256.38028"
       cy="112.69345"
       r="21.986071" />
    <circle
       style="fill:#ff0000;stroke:#000000;stroke-width:0.529167;stroke-dasharray:none"
       id="circle1985"
       cx="-262.88074"
       cy="165.43178"
       r="15.090045" />
    <circle
       style="fill:#ff0000;stroke:#000000;stroke-width:0.529167;stroke-dasharray:none"
       id="circle1987"
       cx="-209.27501"
       cy="148.5"
       r="15.090045" />
    <text
       xml:space="preserve"
       style="font-weight:bold;font-size:141.111px;font-family:sans-serif;-inkscape-font-specification:'sans-serif, Bold';fill:#ff0000;stroke:#000000;stroke-width:0.529167;stroke-dasharray:none"
       x="-299.99023"
       y="113.14733"
       id="text1991"
       transform="rotate(-12.20404)"><tspan
         sodipodi:role="line"
         id="tspan1989"
         style="font-style:normal;font-variant:normal;font-weight:bold;font-stretch:normal;font-size:141.111px;font-family:'Leckerli One';-inkscape-font-specification:'Leckerli One Bold';fill:#ff0000;stroke:#000000;stroke-width:0.529167;stroke-dasharray:none"
         x="-299.99023"
         y="113.14733">n</tspan></text>
    <g
       id="g1999"
       transform="rotate(-49.847374,-114.34044,440.55715)">
      <text
         xml:space="preserve"
         style="font-weight:bold;font-size:141.111px;font-family:'Leckerli One';-inkscape-font-specification:'Leckerli One Bold';fill:#ff0000;stroke:#000000;stroke-width:0.529167;stroke-dasharray:none"
         x="82.367203"
         y="0.39093837"
         id="text1995"
         transform="rotate(85.873567)"><tspan
           sodipodi:role="line"
           id="tspan1993"
           style="stroke-width:0.529167"
           x="82.367203"
           y="0.39093837">&gt;</tspan></text>
      <path
         style="fill:#ff0000;stroke:#ffff00;stroke-width:0.529167;stroke-dasharray:none"
         d="m 34.046038,114.84536 0.29917,-57.198706 c 1.943627,-3.950897 5.628636,-7.059161 9.287164,-8.326129 2.414059,-0.220698 9.115979,2.347036 11.024797,8.325939 l 0.828526,57.198896 z"
         id="path1997"
         sodipodi:nodetypes="cccccc" />
    </g>
    <g
       aria-label="&gt;"
       transform="rotate(36.026193,76.323724,-621.77066)"
       id="text2189"
       style="font-weight:bold;font-size:141.111px;font-family:'Leckerli One';-inkscape-font-specification:'Leckerli One Bold';fill:#ff0000;stroke:#000000;stroke-width:0.529167">
      <g
         id="path2198">
        <path
           style="color:#000000;-inkscape-font-specification:'Leckerli One Bold';stroke:none;-inkscape-stroke:none"
           d="m 184.80359,-13.270732 -4.65667,-6.773328 27.37553,-19.049984 -27.65775,-19.332206 4.93889,-7.055549 37.53552,26.105533 z"
           id="path2203" />
        <path
           style="color:#000000;-inkscape-font-specification:'Leckerli One Bold';fill:#000000;stroke:none;-inkscape-stroke:none"
           d="m 184.73828,-65.849609 -5.24219,7.488281 27.56446,19.267578 -27.28125,18.982422 4.95703,7.208984 0.21875,-0.15039 37.84765,-26.324219 z m 0.13086,0.736328 37.00586,25.736328 -37.00391,25.736328 -4.35742,-6.335937 27.4707,-19.117188 -27.75195,-19.396484 z"
           id="path2205" />
      </g>
    </g>
    <g
       id="path2191"
       transform="translate(-351.1005,-163.80494)">
      <path
         style="color:#000000;fill:#ff0000;stroke-width:0.529167;-inkscape-stroke:none"
         d="M 183.13256,98.477823 139.60682,61.36595 c -1.76649,-4.033212 -1.76604,-8.854063 -0.37531,-12.467357 1.38797,-1.987448 7.67213,-5.454182 13.47284,-3.057796 l 44.25306,36.250065 z"
         id="path2209" />
      <path
         style="color:#000000;fill:#ffff00;-inkscape-stroke:none"
         d="m 148.3457,44.763672 c -1.45787,0.01931 -2.8581,0.295782 -4.11523,0.710937 -2.51427,0.830311 -4.45684,2.185243 -5.2168,3.273438 l -0.0176,0.02539 -0.0117,0.0293 c -1.41906,3.6869 -1.41671,8.565728 0.38086,12.669922 l 0.0234,0.05469 43.77539,37.324218 0.16992,-0.203125 13.99805,-16.591796 -44.49023,-36.445313 -0.0371,-0.01563 c -1.48657,-0.614128 -3.00112,-0.851339 -4.45899,-0.832031 z m 0.004,0.529297 c 1.38819,-0.01873 2.82545,0.211526 4.23242,0.789062 l 44,36.042969 -13.48047,15.978516 -43.26758,-36.892579 c -1.70864,-3.938506 -1.70952,-8.654125 -0.36718,-12.175781 0.6373,-0.899441 2.51664,-2.261712 4.92968,-3.058594 1.21249,-0.40041 2.5579,-0.664765 3.95313,-0.683593 z"
         id="path2211" />
    </g>
    <path
       style="fill:#ff0000;stroke:#ffff00;stroke-width:0.529167"
       d="m -147.74944,-64.608431 -15.37804,-43.461629 -8.48037,2.63703 4.6751,13.435168 -31.58563,-25.725048 -8.18555,-0.10547 -5.3829,2.77149 -0.78265,5.23933 1.60305,7.22356 34.00483,28.608963 -16.61414,-0.346802 -0.23101,8.745754 z"
       id="path2213" />
    <path
       id="circle2225"
       style="fill:#ff0000;stroke:#000000;stroke-width:0.529167"
       d="M 101.84522,97.357971 A 21.986071,21.986071 0 0 1 79.859154,119.34404 21.986071,21.986071 0 0 1 57.873083,97.357971 21.986071,21.986071 0 0 1 79.859154,75.371901 21.986071,21.986071 0 0 1 101.84522,97.357971 Z" />
    <path
       id="circle2229"
       style="fill:#ff0000;stroke:#000000;stroke-width:0.529167"
       d="m 142.05448,133.16452 a 15.090045,15.090045 0 0 1 -15.09005,15.09005 15.090045,15.090045 0 0 1 -15.09004,-15.09005 15.090045,15.090045 0 0 1 15.09004,-15.09004 15.090045,15.090045 0 0 1 15.09005,15.09004 z" />
    <path
       style="color:#000000;font-weight:bold;font-size:141.111px;-inkscape-font-specification:'Leckerli One Bold';fill:#00ff00;stroke:none;stroke-width:0.529167;-inkscape-stroke:none"
       d="m -26.086566,142.13189 c -2.045841,0.44248 -3.619734,2.21405 -4.734386,5.19039 -3.274689,8.53436 -4.667229,17.29574 -4.175127,26.27321 0.243169,6.04528 1.779379,15.58161 4.604259,28.64273 1.096816,5.07125 2.314405,8.72509 3.688948,10.98604 l 0.0028,0.003 0.0028,0.003 c 1.477028,2.25356 3.491317,3.17152 5.879665,2.65496 0.96258,-0.20818 1.996702,-0.68161 3.111601,-1.41235 l 0.002,-4.2e-4 c 3.592452,-2.37076 6.211112,-4.54346 7.859616,-6.53972 1.648501,-1.99628 2.338252,-3.84234 1.976875,-5.51321 -0.292814,-1.35385 -1.30252,-3.5404 -3.031873,-6.63599 l -0.0032,-0.005 c -1.623847,-3.09039 -2.770308,-6.18426 -3.440566,-9.28326 l -0.201071,-0.92968 c -0.114793,-6.29024 0.913849,-12.58819 3.091886,-18.90106 2.247036,-6.41645 5.213093,-9.94792 8.852605,-10.73508 1.893963,-0.40963 3.361932,-0.3024 4.429702,0.27488 1.06776,0.57727 1.77511,1.62905 2.12219,3.23383 0.43327,2.00326 0.62788,4.00842 0.58619,6.01794 -0.0421,2.03015 -0.1114,5.27038 -0.20805,9.71869 l 4.3e-4,0.002 8.4e-4,0.004 c -0.005,4.45036 0.54167,9.21217 1.63882,14.28498 1.27857,5.9116 3.16101,10.16956 5.69162,12.77099 2.53061,2.60142 5.7272,3.50924 9.47408,2.69886 l -0.19787,-0.0371 c 0.22304,0.14373 0.47472,0.12113 0.7793,0.0553 1.56275,-0.338 3.83077,-1.66399 6.90635,-3.97158 3.07557,-2.30761 6.94151,-5.60178 11.60225,-9.88503 l 0.0215,-0.0206 0.0165,-0.0256 c 5.07862,-7.38785 6.94114,-14.36196 5.5307,-20.88327 -0.34191,-1.58087 -0.75795,-2.74396 -1.28405,-3.50704 -0.52611,-0.76308 -1.22743,-1.12933 -1.97574,-0.96748 -0.4388,0.0949 -0.86001,0.45452 -1.37824,1.03744 -0.51823,0.58293 -1.11772,1.40571 -1.8067,2.47497 l -0.003,0.003 -0.002,0.002 c -1.27696,2.10453 -2.69712,4.43266 -4.26239,6.98467 -1.58111,2.45352 -3.19205,4.77037 -4.83185,6.94797 -1.62711,2.16075 -3.11185,3.34873 -4.38188,3.62342 -0.44303,0.0958 -0.74645,0.0174 -1.01891,-0.23923 -0.27247,-0.25664 -0.50757,-0.7299 -0.66025,-1.43585 -0.31086,-1.43728 -0.43286,-3.31655 -0.3594,-5.62537 l 6.9e-4,-0.006 c 0.14672,-2.44375 0.29491,-6.41806 0.44854,-11.93285 0.24661,-5.56024 -0.17731,-10.88139 -1.27616,-15.96204 -1.12494,-5.20127 -3.63878,-8.89065 -7.52297,-10.99209 -3.91099,-2.19723 -9.11774,-2.5721 -15.59226,-1.17177 -6.284913,1.35931 -11.118465,4.74023 -14.492648,10.05654 -2.084028,-2.71383 -4.060985,-4.72486 -5.937656,-5.95358 -1.945219,-1.2736 -3.806701,-1.74847 -5.544373,-1.37265 z m 0.11189,0.51733 c 1.572454,-0.34009 3.275396,0.0752 5.142496,1.29771 1.8671,1.22246 3.883614,3.25268 6.029452,6.09159 l 0.232764,0.30934 0.202076,-0.33145 C -11.054675,144.63138 -6.283195,141.27784 0,139.9189 c 6.39818,-1.38381 11.46414,-0.9956 15.22248,1.11588 l 0.002,10e-4 c 3.74321,2.02372 6.1592,5.54585 7.2612,10.64106 1.08868,5.03362 1.50961,10.3082 1.26485,15.8266 l 4.3e-4,0.002 4.2e-4,0.002 c -0.1537,5.5182 -0.3037,9.49561 -0.44978,11.92712 l -0.001,0.004 8.4e-4,0.004 c -0.0748,2.3399 0.0455,4.25733 0.37071,5.76082 0.1655,0.76521 0.42312,1.34044 0.81546,1.71001 0.39235,0.36956 0.92452,0.49344 1.49292,0.37051 1.48841,-0.32192 3.02963,-1.61422 4.69253,-3.8225 1.64915,-2.19002 3.26759,-4.51779 4.85619,-6.98321 l 0.002,-0.002 0.002,-0.002 c 1.56564,-2.5526 2.9883,-4.88199 4.26579,-6.98741 0.67816,-1.05196 1.26483,-1.85733 1.75185,-2.40515 0.48818,-0.54911 0.89177,-0.82633 1.0966,-0.87063 0.53897,-0.11657 0.97161,0.0896 1.42721,0.75041 0.4556,0.66083 0.86912,1.7733 1.20335,3.31867 1.3724,6.34541 -0.42409,13.14971 -5.43822,20.45163 -4.63748,4.26059 -8.48819,7.54153 -11.53307,9.82609 -3.05243,2.29024 -5.32097,3.58074 -6.70055,3.87912 -0.2471,0.0534 -0.38102,0.019 -0.38164,0.0186 l -0.091,-0.0602 -0.10881,0.0235 c -3.60896,0.78055 -6.56402,-0.0613 -8.98408,-2.54906 -2.42005,-2.48777 -4.28547,-6.65761 -5.55239,-12.51534 -1.08991,-5.03934 -1.63162,-9.76256 -1.62741,-14.16755 0.0966,-4.4484 0.16592,-7.68816 0.20804,-9.71869 0.0426,-2.05115 -0.15709,-4.09866 -0.59883,-6.14111 -0.36883,-1.70534 -1.16518,-2.92618 -2.38628,-3.58636 -1.2211,-0.66017 -2.826992,-0.75341 -4.794842,-0.3278 -3.900218,0.84355 -6.964845,4.58216 -9.239908,11.07863 l -0.002,4.2e-4 c -2.198308,6.37164 -3.238764,12.73996 -3.120972,19.0992 l -3.97e-4,0.0261 0.214283,0.99076 c 0.681629,3.15158 1.847552,6.29353 3.492945,9.4238 l 4.23e-4,0.002 0.0028,0.003 c 1.72267,3.08301 2.715729,5.27592 2.979494,6.49546 0.31477,1.45537 -0.275111,3.13489 -1.868194,5.06406 -1.593082,1.92916 -4.175637,4.08059 -7.7425,6.43446 -1.076878,0.70582 -2.057485,1.1484 -2.933862,1.33794 -2.209049,0.47778 -3.928813,-0.29726 -5.324849,-2.42725 -1.313345,-2.16302 -2.530219,-5.77636 -3.620006,-10.81511 -2.822458,-13.04992 -4.35365,-22.57927 -4.593728,-28.55708 l -4.23e-4,-0.002 0.0015,-0.002 c -0.488117,-8.90479 0.890903,-17.58527 4.140623,-26.05393 l -4.22e-4,-0.002 0.002,-4.2e-4 c 1.081825,-2.88866 2.534366,-4.46677 4.350337,-4.85953 z"
       id="path4233" />
    <circle
       style="fill:#ff0000;stroke:#000000;stroke-width:0.529167;stroke-dasharray:none"
       id="circle4235"
       cx="93.721756"
       cy="213.64151"
       r="21.986071" />
    <path
       style="color:#000000;font-weight:bold;font-size:141.111px;-inkscape-font-specification:'Leckerli One Bold';fill:#ff0000;stroke:#000000;stroke-width:0.52890208;stroke-dasharray:none"
       d="m 85.467885,196.64894 q 4.965193,-1.07388 11.436966,7.48818 5.020669,-8.16019 14.537289,-10.21846 9.65454,-2.0881 15.40653,1.14344 5.72218,3.09361 7.39266,10.81724 1.64065,7.58571 1.27212,15.89471 -0.2306,8.27918 -0.4503,11.93605 -0.11161,3.4891 0.36567,5.69585 0.47728,2.20675 1.99442,1.87862 2.06883,-0.44745 4.53635,-3.72423 2.46751,-3.27678 4.84554,-6.96732 2.34819,-3.82846 4.26402,-6.98592 2.05375,-3.18729 3.01921,-3.3961 1.9309,-0.41762 2.94512,4.27173 2.0881,9.65454 -5.48958,20.67774 -13.97052,12.83898 -18.38402,13.79354 -0.41376,0.0895 -0.58152,-0.0186 -11.03376,2.3864 -14.85199,-15.26761 -1.64065,-7.58572 -1.63361,-14.22843 0.14496,-6.67254 0.20814,-9.71806 0.0632,-3.04551 -0.59308,-6.07979 -1.07388,-4.9652 -6.8666,-3.71234 -5.65481,1.22303 -9.046383,10.90773 -3.283487,9.51696 -3.107694,19.0076 l 0.208811,0.96546 q 1.014218,4.68935 3.467316,9.35624 2.59102,4.63706 3.00864,6.56798 1.01422,4.68934 -9.724762,11.77631 -1.643835,1.07741 -3.023055,1.37571 -3.44805,0.74575 -5.602851,-2.54193 -2.016876,-3.3175 -3.657526,-10.90321 -4.235857,-19.58493 -4.598002,-28.60215 -0.735189,-13.41212 4.158449,-26.16479 1.647359,-4.39875 4.543722,-5.02518 z"
       id="path4231" />
    <circle
       style="fill:#ff0000;stroke:#000000;stroke-width:0.529167;stroke-dasharray:none"
       id="circle4237"
       cx="87.221298"
       cy="266.37982"
       r="15.090045" />
    <circle
       style="fill:#ff0000;stroke:#000000;stroke-width:0.529167;stroke-dasharray:none"
       id="circle4239"
       cx="140.82703"
       cy="249.44806"
       r="15.090045" />
    <circle
       style="fill:#ff0000;stroke:#000000;stroke-width:0.529167;stroke-dasharray:none"
       id="circle4246"
       cx="87.221298"
       cy="266.37982"
       r="15.090045" />
    <path
       style="color:#000000;font-weight:bold;font-size:141.111px;-inkscape-font-specification:'Leckerli One Bold';fill:#ff0000;stroke:#000000;stroke-width:0.528902;stroke-dasharray:none"
       d="m 73.90033,84.892182 q 4.965193,-1.07388 11.436966,7.48818 5.020669,-8.16019 14.53729,-10.218462 9.654544,-2.0881 15.406534,1.143442 5.72218,3.09361 7.39266,10.81724 1.64065,7.585708 1.27212,15.894708 -0.2306,8.27918 -0.4503,11.93605 -0.11161,3.4891 0.36567,5.69585 0.47728,2.20675 1.99442,1.87862 2.06883,-0.44745 4.53635,-3.72423 2.46751,-3.27678 4.84554,-6.96732 2.34819,-3.82846 4.26402,-6.98592 2.05375,-3.18729 3.01921,-3.3961 1.9309,-0.41762 2.94512,4.27173 2.0881,9.65454 -5.48958,20.67774 -13.97052,12.83898 -18.38402,13.79354 -0.41376,0.0895 -0.58152,-0.0186 -11.03376,2.3864 -14.85199,-15.26761 -1.64065,-7.58572 -1.63361,-14.22843 0.14496,-6.67254 0.20814,-9.71806 0.0632,-3.04551 -0.59308,-6.07979 -1.07388,-4.965198 -6.866604,-3.712338 -5.654811,1.22303 -9.046384,10.907728 -3.283487,9.51696 -3.107694,19.0076 l 0.208811,0.96546 q 1.014218,4.68935 3.467316,9.35624 2.59102,4.63706 3.00864,6.56798 1.01422,4.68934 -9.724762,11.77631 -1.643835,1.07741 -3.023055,1.37571 -3.44805,0.74575 -5.602851,-2.54193 -2.016876,-3.3175 -3.657526,-10.90321 -4.235857,-19.58493 -4.598002,-28.60215 -0.735189,-13.41212 4.158449,-26.164788 1.647359,-4.39875 4.543722,-5.02518 z"
       id="path4248" />
    <circle
       style="fill:#ff0000;stroke:#000000;stroke-width:0.529167;stroke-dasharray:none"
       id="circle2227"
       cx="73.358696"
       cy="150.0963"
       r="15.090045" />
  </g>
</svg>
