<?xml version="1.0" encoding="UTF-8" standalone="no"?>
<!-- Created with Inkscape (http://www.inkscape.org/) -->

<svg
   width="48"
   height="48"
   viewBox="0 0 12.7 12.7"
   version="1.1"
   id="svg6434"
   xmlns="http://www.w3.org/2000/svg"
   xmlns:svg="http://www.w3.org/2000/svg"
   xmlns:rdf="http://www.w3.org/1999/02/22-rdf-syntax-ns#"
   xmlns:cc="http://creativecommons.org/ns#"
   xmlns:dc="http://purl.org/dc/elements/1.1/">
  <title
     id="title9153">ndipoo mobile logo</title>
  <defs
     id="defs6431" />
  <g
     id="layer1">
    <g
       id="g9542"
       transform="matrix(0.94386147,0,0,0.94386147,0.35670557,0.35647947)">
      <path
         id="path7281"
         style="fill:#ffffff;stroke:#000000;stroke-width:0.529167;stroke-dasharray:none"
         d="M 6.3434967,3.3373189 A 2.8897773,2.8897773 0 0 1 3.4537201,6.2270959 2.8897773,2.8897773 0 0 1 0.56394278,3.3373189 2.8897773,2.8897773 0 0 1 3.4537201,0.44754173 2.8897773,2.8897773 0 0 1 6.3434967,3.3373189 Z" />
      <circle
         style="fill:#ffffff;stroke:#000000;stroke-width:0.529167;stroke-dasharray:none"
         id="circle7287"
         cx="2.5993211"
         cy="10.269073"
         r="1.9833862" />
      <path
         style="color:#000000;font-weight:bold;font-size:141.111px;-inkscape-font-specification:'Leckerli One Bold';fill:#ffffff;stroke:#000000;stroke-width:0.529167;stroke-dasharray:none"
         d="M 2.6705117,1.6988563 Q 3.3231204,1.5577091 4.1737491,2.6830782 4.8336494,1.6105295 6.084483,1.339997 7.3534447,1.065544 8.1094674,1.4902873 q 0.7521047,0.406614 0.9716671,1.4217826 0.2156417,0.9970407 0.1672033,2.0891485 -0.030309,1.0881883 -0.059186,1.5688353 -0.01467,0.4585959 0.048063,0.7486439 0.062732,0.2900481 0.26214,0.2469197 0.2719203,-0.058811 0.5962432,-0.4895006 0.324322,-0.4306892 0.636882,-0.9157618 0.308639,-0.5032002 0.560449,-0.9182064 0.269938,-0.418927 0.396835,-0.4463723 0.25379,-0.054891 0.387097,0.5614622 0.274453,1.2689612 -0.721532,2.7178145 Q 9.5190882,9.7625665 8.9389922,9.8880307 8.884609,9.8997943 8.8625592,9.885586 7.4123178,10.199247 6.9104622,7.8788613 6.6948205,6.881819 6.6957458,6.008723 6.7147989,5.1317061 6.723103,4.7314129 6.7314098,4.3311211 6.6451505,3.9323052 6.5040033,3.2796958 5.7426266,3.4443677 4.9993767,3.6051187 4.5535994,4.8780438 4.1220286,6.1289219 4.1451343,7.3763405 l 0.027445,0.1268969 Q 4.3058852,8.1195903 4.6283124,8.732991 4.9688676,9.342471 5.0237582,9.5962648 5.157064,10.212616 3.7455673,11.144105 3.529507,11.285716 3.3482268,11.324923 2.8950264,11.422942 2.6118064,10.99082 2.3467148,10.554779 2.1310732,9.5577381 1.574326,6.983559 1.5267268,5.798365 1.430096,4.0355199 2.0732998,2.3593509 2.2898232,1.7811936 2.6705117,1.6988576 Z"
         id="path7285" />
      <path
         id="path7283"
         style="fill:#ffffff;stroke:#000000;stroke-width:0.512646;stroke-dasharray:none"
         d="M 11.496363,7.9734307 A 1.9214628,1.9214628 0 0 1 9.5748996,9.8948937 1.9214628,1.9214628 0 0 1 7.6534374,7.9734307 1.9214628,1.9214628 0 0 1 9.5748996,6.0519685 1.9214628,1.9214628 0 0 1 11.496363,7.9734307 Z" />
    </g>
  </g>
  <metadata
     id="metadata9151">
    <rdf:RDF>
      <cc:Work
         rdf:about="">
        <dc:title>ndipoo mobile logo</dc:title>
      </cc:Work>
    </rdf:RDF>
  </metadata>
</svg>
