<?xml version="1.0" encoding="UTF-8" standalone="no"?>
<!-- Created with Inkscape (http://www.inkscape.org/) -->

<svg
   width="48"
   height="48"
   viewBox="0 0 12.7 12.7"
   version="1.1"
   id="svg6434"
   xml:space="preserve"
   xmlns="http://www.w3.org/2000/svg"
   xmlns:svg="http://www.w3.org/2000/svg"
   xmlns:rdf="http://www.w3.org/1999/02/22-rdf-syntax-ns#"
   xmlns:cc="http://creativecommons.org/ns#"
   xmlns:dc="http://purl.org/dc/elements/1.1/"><title
     id="title9153">ndipoo mobile logo</title><defs
     id="defs6431" /><g
     id="layer1"><g
       id="g13731"
       transform="matrix(1.0208865,0,0,1.0208865,-0.13235349,-18.815978)"
       style="fill:#dfdfdf;fill-opacity:1;stroke:#e1e0dd;stroke-width:1.00035;stroke-dasharray:none;stroke-opacity:1"><path
         id="path13723"
         style="fill:#dfdfdf;fill-opacity:1;stroke:#e1e0dd;stroke-width:1.00035;stroke-dasharray:none;stroke-opacity:1"
         d="M 6.3440877,21.807549 A 2.7275495,2.7275495 0 0 1 3.6165389,24.535098 2.7275495,2.7275495 0 0 1 0.88898943,21.807549 2.7275495,2.7275495 0 0 1 3.6165389,19.08 2.7275495,2.7275495 0 0 1 6.3440877,21.807549 Z" /><circle
         style="fill:#dfdfdf;fill-opacity:1;stroke:#e1e0dd;stroke-width:1.00035;stroke-dasharray:none;stroke-opacity:1"
         id="circle13725"
         cx="2.8101046"
         cy="28.350164"
         r="1.8720418" /><path
         style="color:#000000;font-weight:bold;font-size:141.111px;-inkscape-font-specification:'Leckerli One Bold';fill:#dfdfdf;fill-opacity:1;stroke:#e1e0dd;stroke-width:1.00035;stroke-dasharray:none;stroke-opacity:1"
         d="m 2.8772987,20.261068 q 0.6159722,-0.133224 1.4188478,0.928969 0.6228545,-1.012338 1.8034681,-1.267683 1.1977241,-0.259046 1.9113048,0.141853 0.7098826,0.383788 0.9171191,1.341966 0.2035359,0.941068 0.1578168,1.971867 -0.028607,1.027099 -0.055863,1.480763 -0.013847,0.432851 0.045365,0.706616 0.05921,0.273765 0.2474239,0.233058 0.256655,-0.05551 0.5627709,-0.462021 0.3061149,-0.406511 0.6011279,-0.864352 0.291312,-0.474951 0.528986,-0.866659 0.254784,-0.39541 0.374557,-0.421314 0.239543,-0.05181 0.365366,0.529942 0.259046,1.197724 -0.681026,2.565241 -1.7331562,1.592779 -2.2806865,1.7112 -0.05133,0.0111 -0.072142,-0.0023 -1.3688274,0.296055 -1.8425095,-1.894068 -0.2035359,-0.94107 -0.2026626,-1.765151 0.017984,-0.827783 0.025822,-1.205604 0.00784,-0.37782 -0.073576,-0.754247 -0.1332234,-0.615973 -0.8518575,-0.460546 -0.701525,0.151727 -1.122277,1.353192 -0.4073431,1.180656 -0.3855345,2.358046 l 0.025904,0.119773 q 0.1258226,0.581752 0.4301492,1.160717 0.3214369,0.575265 0.3732461,0.814811 0.1258222,0.58175 -1.2064352,1.460947 -0.203931,0.133661 -0.3750344,0.170667 Q 3.0892094,29.439257 2.821889,29.031394 2.5716793,28.619832 2.3681435,27.678763 1.8426512,25.249095 1.7977242,24.130436 q -0.091206,-1.663882 0.5158892,-3.245953 0.2043681,-0.5457 0.5636853,-0.623415 z"
         id="path13727" /><path
         id="path13729"
         style="fill:#dfdfdf;fill-opacity:1;stroke:#e1e0dd;stroke-width:1.00035;stroke-dasharray:none;stroke-opacity:1"
         d="M 11.20768,26.183397 A 1.8135947,1.8135947 0 0 1 9.3940844,27.996991 1.8135947,1.8135947 0 0 1 7.5804902,26.183397 1.8135947,1.8135947 0 0 1 9.3940844,24.369802 1.8135947,1.8135947 0 0 1 11.20768,26.183397 Z" /></g><g
       id="g13721"
       transform="translate(1.1485341e-4,-18.301103)"><path
         id="path13662"
         style="fill:#dfdfdf;fill-opacity:1;stroke:#333333;stroke-width:0.49946;stroke-dasharray:none;stroke-opacity:1"
         d="M 6.3440877,21.807549 A 2.7275495,2.7275495 0 0 1 3.6165389,24.535098 2.7275495,2.7275495 0 0 1 0.88898943,21.807549 2.7275495,2.7275495 0 0 1 3.6165389,19.08 2.7275495,2.7275495 0 0 1 6.3440877,21.807549 Z" /><circle
         style="fill:#8b8b8b;fill-opacity:1;stroke:#333333;stroke-width:0.49946;stroke-dasharray:none;stroke-opacity:1"
         id="circle13664"
         cx="2.8101046"
         cy="28.350164"
         r="1.8720418" /><path
         style="color:#000000;font-weight:bold;font-size:141.111px;-inkscape-font-specification:'Leckerli One Bold';fill:#808080;fill-opacity:1;stroke:#333333;stroke-width:0.499;stroke-dasharray:none;stroke-opacity:1"
         d="m 2.8772987,20.261068 q 0.6159722,-0.133224 1.4188478,0.928969 0.6228545,-1.012338 1.8034681,-1.267683 1.1977241,-0.259046 1.9113048,0.141853 0.7098826,0.383788 0.9171191,1.341966 0.2035359,0.941068 0.1578168,1.971867 -0.028607,1.027099 -0.055863,1.480763 -0.013847,0.432851 0.045365,0.706616 0.05921,0.273765 0.2474239,0.233058 0.256655,-0.05551 0.5627709,-0.462021 0.3061149,-0.406511 0.6011279,-0.864352 0.291312,-0.474951 0.528986,-0.866659 0.254784,-0.39541 0.374557,-0.421314 0.239543,-0.05181 0.365366,0.529942 0.259046,1.197724 -0.681026,2.565241 -1.7331562,1.592779 -2.2806865,1.7112 -0.05133,0.0111 -0.072142,-0.0023 -1.3688274,0.296055 -1.8425095,-1.894068 -0.2035359,-0.94107 -0.2026626,-1.765151 0.017984,-0.827783 0.025822,-1.205604 0.00784,-0.37782 -0.073576,-0.754247 -0.1332234,-0.615973 -0.8518575,-0.460546 -0.701525,0.151727 -1.122277,1.353192 -0.4073431,1.180656 -0.3855345,2.358046 l 0.025904,0.119773 q 0.1258226,0.581752 0.4301492,1.160717 0.3214369,0.575265 0.3732461,0.814811 0.1258222,0.58175 -1.2064352,1.460947 -0.203931,0.133661 -0.3750344,0.170667 Q 3.0892094,29.439257 2.821889,29.031394 2.5716793,28.619832 2.3681435,27.678763 1.8426512,25.249095 1.7977242,24.130436 q -0.091206,-1.663882 0.5158892,-3.245953 0.2043681,-0.5457 0.5636853,-0.623415 z"
         id="path13666" /><path
         id="path13668"
         style="fill:#414141;fill-opacity:1;stroke:#333333;stroke-width:0.483867;stroke-dasharray:none;stroke-opacity:1"
         d="M 11.20768,26.183397 A 1.8135947,1.8135947 0 0 1 9.3940844,27.996991 1.8135947,1.8135947 0 0 1 7.5804902,26.183397 1.8135947,1.8135947 0 0 1 9.3940844,24.369802 1.8135947,1.8135947 0 0 1 11.20768,26.183397 Z" /></g></g><metadata
     id="metadata9151"><rdf:RDF><cc:Work
         rdf:about=""><dc:title>ndipoo mobile logo</dc:title></cc:Work></rdf:RDF></metadata></svg>
